<svg aria-hidden="true" style="position: absolute; width: 0; height: 0; overflow: hidden;" version="1.1" xmlns="http://www.w3.org/2000/svg" xmlns:xlink="http://www.w3.org/1999/xlink">
<defs>
<symbol id="icon-instagram" viewBox="0 0 32 32">
<path fill="transparent" d="M2 2.177c-2.515 2.612-2 5.387-2 13.816 0 7-1.221 14.017 5.171 15.669 1.996 0.513 19.681 0.513 21.675-0.003 2.661-0.687 4.827-2.845 5.123-6.609 0.041-0.525 0.041-17.58-0.001-18.116-0.315-4.009-2.783-6.32-6.035-6.788-0.745-0.108-0.895-0.14-4.719-0.147-13.564 0.007-16.537-0.597-19.213 2.177z"></path>
<path fill="#fff" d="M15.997 4.185c-4.841 0-9.439-0.431-11.195 4.076-0.725 1.861-0.62 4.279-0.62 7.74 0 3.037-0.097 5.892 0.62 7.739 1.752 4.509 6.387 4.077 11.192 4.077 4.636 0 9.416 0.483 11.193-4.077 0.727-1.88 0.62-4.261 0.62-7.739 0-4.616 0.255-7.596-1.984-9.833-2.267-2.267-5.332-1.983-9.832-1.983h0.005zM14.939 6.315c10.099-0.016 11.384-1.139 10.675 14.457-0.252 5.516-4.452 4.911-9.615 4.911-9.413 0-9.684-0.269-9.684-9.687 0-9.527 0.747-9.676 8.624-9.684v0.003zM22.304 8.276c-0.783 0-1.417 0.635-1.417 1.417s0.635 1.417 1.417 1.417c0.783 0 1.417-0.635 1.417-1.417s-0.635-1.417-1.417-1.417zM15.997 9.933c-3.351 0-6.067 2.717-6.067 6.068s2.716 6.067 6.067 6.067c3.351 0 6.065-2.716 6.065-6.067s-2.715-6.068-6.065-6.068zM15.997 12.063c5.207 0 5.213 7.877 0 7.877-5.205 0-5.213-7.877 0-7.877z"></path>
</symbol>
<symbol id="icon-pinterest" viewBox="0 0 32 32">
<path fill="#cb2027" style="fill: var(--color3, #cb2027)" d="M16 32c8.836 0 16-7.163 16-16s-7.163-16-16-16c-8.836 0-16 7.163-16 16s7.163 16 16 16z"></path>
<path fill="#f1f2f2" style="fill: var(--color4, #f1f2f2)" d="M17.291 21.426c-1.21-0.094-1.718-0.693-2.666-1.269-0.521 2.736-1.159 5.358-3.046 6.728-0.583-4.134 0.855-7.24 1.523-10.536-1.139-1.917 0.137-5.774 2.538-4.824 2.956 1.169-2.559 7.127 1.143 7.871 3.865 0.777 5.443-6.706 3.046-9.14-3.463-3.514-10.080-0.080-9.266 4.951 0.198 1.23 1.469 1.603 0.508 3.3-2.216-0.491-2.877-2.239-2.793-4.569 0.137-3.815 3.428-6.486 6.728-6.855 4.174-0.467 8.092 1.533 8.632 5.459 0.608 4.431-1.884 9.23-6.347 8.886z"></path>
</symbol>
<symbol id="icon-vk" viewBox="0 0 32 32">
<path fill="#4d76a1" style="fill: var(--color5, #4d76a1)" d="M16 32c8.837 0 16-7.163 16-16s-7.163-16-16-16c-8.837 0-16 7.163-16 16s7.163 16 16 16z"></path>
<path fill="#fff" style="fill: var(--color2, #fff)" d="M15.396 23.017h1.256c0 0 0.379-0.042 0.573-0.25 0.178-0.192 0.173-0.552 0.173-0.552s-0.025-1.685 0.758-1.933c0.771-0.244 1.761 1.629 2.81 2.349 0.793 0.545 1.396 0.425 1.396 0.425l2.806-0.039c0 0 1.468-0.090 0.772-1.244-0.057-0.094-0.405-0.854-2.086-2.414-1.759-1.633-1.524-1.369 0.595-4.193 1.291-1.72 1.807-2.77 1.645-3.22-0.154-0.428-1.103-0.315-1.103-0.315l-3.159 0.020c0 0-0.234-0.032-0.408 0.072-0.17 0.102-0.279 0.339-0.279 0.339s-0.5 1.331-1.167 2.463c-1.407 2.389-1.969 2.515-2.199 2.366-0.535-0.346-0.401-1.389-0.401-2.13 0-2.315 0.351-3.28-0.684-3.53-0.343-0.083-0.596-0.138-1.474-0.147-1.127-0.012-2.081 0.003-2.621 0.268-0.359 0.176-0.637 0.568-0.468 0.591 0.209 0.028 0.682 0.127 0.932 0.469 0.324 0.44 0.312 1.429 0.312 1.429s0.186 2.725-0.434 3.064c-0.426 0.232-1.010-0.242-2.264-2.409-0.643-1.11-1.128-2.337-1.128-2.337s-0.094-0.229-0.26-0.352c-0.203-0.149-0.485-0.196-0.485-0.196l-3.002 0.020c0 0-0.451 0.013-0.616 0.209-0.147 0.174-0.012 0.535-0.012 0.535s2.35 5.498 5.011 8.269c2.44 2.54 5.211 2.374 5.211 2.374z"></path>
</symbol>
<symbol id="icon-Group" viewBox="0 0 32 32">
<path d="M25.375 20.75c-1.852 0-3.498 0.9-4.524 2.286l-8.829-4.512c0.148-0.503 0.228-1.036 0.228-1.586 0-0.746-0.146-1.458-0.411-2.11l9.254-5.56c1.033 1.212 2.569 1.982 4.282 1.982 3.102 0 5.625-2.523 5.625-5.625s-2.523-5.625-5.625-5.625c-3.102 0-5.625 2.523-5.625 5.625 0 0.717 0.135 1.403 0.38 2.034l-9.277 5.574c-1.032-1.176-2.545-1.92-4.229-1.92-3.102 0-5.625 2.523-5.625 5.625s2.523 5.625 5.625 5.625c1.883 0 3.552-0.93 4.574-2.354l8.804 4.499c-0.164 0.527-0.252 1.087-0.252 1.668 0 3.102 2.523 5.625 5.625 5.625s5.625-2.523 5.625-5.625c0-3.102-2.523-5.625-5.625-5.625zM25.375 1.875c2.068 0 3.75 1.682 3.75 3.75s-1.682 3.75-3.75 3.75c-2.068 0-3.75-1.682-3.75-3.75s1.682-3.75 3.75-3.75zM6.625 20.688c-2.068 0-3.75-1.682-3.75-3.75s1.682-3.75 3.75-3.75 3.75 1.682 3.75 3.75c0 2.068-1.682 3.75-3.75 3.75zM25.375 30.125c-2.068 0-3.75-1.682-3.75-3.75s1.682-3.75 3.75-3.75c2.068 0 3.75 1.682 3.75 3.75s-1.682 3.75-3.75 3.75z"></path>
</symbol>
</defs>
</svg>
